/* XPM */
static char *_fe978b846cb4a5dd0e5e6cf968f4692ATWV587NuH5fc0gm[] = {
/* columns rows colors chars-per-pixel */
"50 50 58 1 ",
"  c None",
". c #881417",
"X c #D31D24",
"o c #D41D24",
"O c #D51E24",
"+ c #D71E24",
"@ c #D81E23",
"# c #D81E25",
"$ c #D91E25",
"% c #DA1E25",
"& c #DB1E25",
"* c #DB1F25",
"= c #DC1F25",
"- c #DD1E26",
"; c #DC1F26",
": c #DD1F26",
"> c #DE1F26",
", c #DE3036",
"< c #DD3339",
"1 c #DE3339",
"2 c #DE373D",
"3 c #DE7841",
"4 c #DF7F43",
"5 c #CA8642",
"6 c #CE8943",
"7 c #CF8943",
"8 c #DE8043",
"9 c #DE8143",
"0 c #DE8544",
"q c #D18A44",
"w c #D48D46",
"e c #D58D46",
"r c #D68E46",
"t c #DF8946",
"y c #DE8A46",
"u c #D88F47",
"i c #DF8C47",
"p c #DE8D47",
"a c #D89047",
"s c #D99047",
"d c #DE9048",
"f c #DF9048",
"g c #DC9248",
"h c #DD9348",
"j c #DE9349",
"k c #DE9449",
"l c #DF9449",
"z c #DE9B9E",
"x c #DEAEB0",
"c c #DEB1B3",
"v c #DEB7B9",
"b c #DFC2C3",
"n c #DFC3C4",
"m c #DFDBDC",
"M c #DFDCDC",
"N c #DFDFDF",
"B c #DEE0E0",
"V c #DFE0E0",
/* pixels */
"                                                  ",
"                                                  ",
"                                                  ",
"                                                  ",
"                                                  ",
"                                                  ",
"                                     rkkkkkk      ",
"                                     rkkkkkk      ",
"                                     rkkkkkk      ",
"                              skkkkkkkkkkkkk      ",
"                              skkkkkkkkkkkkk      ",
"                              skkkkkkkkkkkkk      ",
"                              5666kkkq666666      ",
"                       gkkkkkk    kkk             ",
"                       gkkkkkk    kkk             ",
"                       gkkkkkk    kkk             ",
"                    ggg           kkk             ",
"                    kkk           kkk             ",
"                    kkk           kkk             ",
"                    rrr           rrr             ",
"         >>>>>>>gkkr          uggg                ",
"         >>>>>>>gkkr          uggg                ",
"         >>>>>>>gkkr          uggg                ",
"      ***>>>>>>>gkk8***       uggg                ",
"      >>>>>>>>>>gkk4>>>       uggg                ",
"      >>>>>>>>>>gkk4>>>       uggg                ",
"      >>>>>>>>>>tii3>>>       uggg                ",
"      >>>>>>>>>>>>>>>>>    >>>0ggi>>>             ",
"      >>>>>>>>>>>>>>>>>    >>>0ggi>>>             ",
"      >>>>>>>>>>>>>>>>>    >>>0ggi>>>             ",
"      >>>bnnz>>>>>>X   +**+>>>0ggi>>>@***         ",
"      >>>NVVc>>>>>>+   *>>>>>>0ggi>>>>>>>         ",
"      >>>NVVc>>>>>>+   *>>>>>>0ggi>>>>>>>         ",
"      >>>mNNx>>>>>>+   *>>>>>>8ggt>>>>>>>         ",
"         >>>>>>>>>>+   *>>>>>>>>>>>>>>>>>         ",
"         >>>>>>>>>>+   *>>>>>>>>>>>>>>>>>         ",
"         >>>>>>>>>>+   *>>>>>>>>>>>>>>>>>         ",
"                       *>>,vvv<>>>>>>>>>>         ",
"                       *>><VVV2>>>>>>>>>>         ",
"                       *>><VVV2>>>>>>>>>>         ",
"                       *>><NNN2>>>>>>>>>>         ",
"                           >>>>>>>>>>             ",
"                           >>>>>>>>>>             ",
"                           >>>>>>>>>>             ",
"                           ..........             ",
"                                                  ",
"                                                  ",
"                                                  ",
"                                                  ",
"                                                  "
};