/* XPM */
static char *result[] = {
/* columns rows colors chars-per-pixel */
"50 50 19 1 ",
"  c #3D110E",
". c #7A221B",
"X c #B73228",
"o c #F44336",
"O c #BA615B",
"+ c #9A4A76",
"@ c #F77268",
"# c #3F51B5",
"$ c #5F689A",
"% c #9C79A8",
"& c #808080",
"* c gray75",
"= c #FAA19A",
"- c #FAA19B",
"; c #9FA8DA",
": c #FCD0CD",
"> c #CFD4ED",
", c white",
"< c None",
/* pixels */
"<<<<<<<<<<<<<<<<<<<<<<<<<<<<<<<<<<<<<<<<<<<<<<<<<<",
"<<<<<<<<<<<<<<<<<<<<<<<<<<<<<<<<<<<<<<<<<<<<<<<<<<",
"<<<<<<<<<<<<<<<<<<<<<<<<<<<<<<<<<<<<<<<<<<<<<<<<<<",
"<<<<<<<<<<<<<<<<<<<<<<<<<<<<<<<<<<<<<<<<<<<<<<<<<<",
"<<<<<<<<<<<<<<<<<<<<<<<<<<<<<<<<<<<<<<<<<<<<<<<<<<",
"<<<<<<<<<<<<<<<<<<<<<<<<<<<<<<<<<<<<<<<<<<<<<<<<<<",
"<<<<<<ooooooooooooooooooooo.<<<<<<<<<<<<<<<<<<<<<<",
"<<<<<<ooooooooooooooooooooo.<<<<<<<<<<<<<<<<<<<<<<",
"<<<<<<..Xoooooooooooooooo++%;;>,,...<<<<<<<<<<<<<<",
"<<<<<<<<.oooooooooooooooo#####;,*ooo<<<<<<<<<<<<<<",
"<<<<<<<<.oooooooooooooooo#####;,,ooo<<<<<<<<<<<<<<",
"<<<<<<<< ..Xoooooooooo@--#####;,,---oo.<<<<<<<<<<<",
"<<<<<<<<<<<.oooooooooo=,,#####;***,,oo.<<<<<<<<<<<",
"<<<<<<<<<<<.oooooooooo=,*#####$*,,,,oo.<<<<<<<<<<<",
"<<<<<<<<.ooooooooooooo=,*,,,,,,*,,,,ooooo.<<<<<<<<",
"<<<<<<<<.ooooooooooooo=,,,,,**,,*,&,ooooo.<<<<<<<<",
"<<<<<<..XoooooooooooooX--*,,,,,,,---ooooo.<<<<<<<<",
"<<<<<<ooooooooooooooooooo,*,,,,,,oooooooo.<<<<<<<<",
"<<<<<<ooooooooooooooooooo*,,,,,,*oooooooo.<<<<<<<<",
"<<<<<<ooooooooooooooooooo-------Oooooooooooo.<<<<<",
"<<<<<<oooooooooooooooooooooooooooooooooooooo.<<<<<",
"<<<<<<oooooooooooooooooooooooooooooooooooooo.<<<<<",
"<<<<<<<<<<<.oooooooooooooooooooooooooooooooo.<<<<<",
"<<<<<<<<<<<.oooooooooooooooooooooooooooooooo.<<<<<",
"<<<<<<<<<<<.oooooooooooooooooooooooooooooooo.<<<<<",
"<<<<<<<<<<<.ooooooooooooo#####;*,-oooooooooo.<<<<<",
"<<<<<<<<<<<.ooooooooooooo#####;,*-oooooooooo.<<<<<",
"<<<<<<<<<<<.oooooooooo---#####;,,:--oooooooo.<<<<<",
"<<<<<<oooooooooooooooo,,,#####;,*,,,oooooooo.<<<<<",
"<<<<<<oooooooooooooooo,*,#####;**,*,oooooooo.<<<<<",
"<<<<<<oooooooooooooooo,,,;;;$;>*,,*,oooooX.. <<<<<",
"<<<<<<oooooooooooooooo,,,,,,,,,,,,,*ooooo.<<<<<<<<",
"<<<<<<oooooooooooooooo,,,,,,,,,,,,&,ooooo.<<<<<<<<",
"<<<<<<<<.ooooooooooooo---**,,,,*,:--ooooo.<<<<<<<<",
"<<<<<<<<.oooooooooooooooo,,,,,,*,-ooooooo.<<<<<<<<",
"<<<<<<<<.oooooooooooooooo,,,,,,,,-ooooooo.<<<<<<<<",
"<<<<<<<<<<<.oooooooooooooooooooooooooo.<<<<<<<<<<<",
"<<<<<<<<<<<.oooooooooooooooooooooooooo.<<<<<<<<<<<",
"<<<<<<<< ..Xoooooooooooooooooooooooo.. <<<<<<<<<<<",
"<<<<<<<<.ooooooooooooooooooooooooooo<<<<<<<<<<<<<<",
"<<<<<<<<.ooooooooooooooooooooooooooo<<<<<<<<<<<<<<",
"<<<<<<..Xooooooooooooooooooo........<<<<<<<<<<<<<<",
"<<<<<<oooooooooooooooooooooo<<<<<<<<<<<<<<<<<<<<<<",
"<<<<<<oooooooooooooooooooooo<<<<<<<<<<<<<<<<<<<<<<",
"<<<<<<<<<<<<<<<<<<<<<<<<<<<<<<<<<<<<<<<<<<<<<<<<<<",
"<<<<<<<<<<<<<<<<<<<<<<<<<<<<<<<<<<<<<<<<<<<<<<<<<<",
"<<<<<<<<<<<<<<<<<<<<<<<<<<<<<<<<<<<<<<<<<<<<<<<<<<",
"<<<<<<<<<<<<<<<<<<<<<<<<<<<<<<<<<<<<<<<<<<<<<<<<<<",
"<<<<<<<<<<<<<<<<<<<<<<<<<<<<<<<<<<<<<<<<<<<<<<<<<<",
"<<<<<<<<<<<<<<<<<<<<<<<<<<<<<<<<<<<<<<<<<<<<<<<<<<"
};