/* XPM */
static char *result[] = {
/* columns rows colors chars-per-pixel */
"50 50 19 1 ",
"  c #3D110E",
". c #7A221B",
"X c #B73228",
"o c #F44336",
"O c #BA615B",
"+ c #9A4A76",
"@ c #F77268",
"# c #3F51B5",
"$ c #5F689A",
"% c #9C79A8",
"& c #808080",
"* c gray75",
"= c #FAA19A",
"- c #FAA19B",
"; c #9FA8DA",
": c #FCD0CD",
"> c #CFD4ED",
", c white",
"< c None",
/* pixels */
"<<<<<<<<<<<<<<<<<<<<<<<<<<<<<<<<<<<<<<<<<<<<<<<<<<",
"<<<<<<<<<<<<<<<<<<<<<<<<<<<<<<<<<<<<<<<<<<<<<<<<<<",
"<<<<<<<<<<<<<<<<<<<<<<<<<<<<<<<<<<<<<<<<<<<<<<<<<<",
"<<<<<<<<<<<<<<<<<<<<<<<<<<<<<<<<<<<<<<<<<<<<<<<<<<",
"<<<<<<<<<<<<<<<<<<<<<<<<<<<<<<<<<<<<<<<<<<<<<<<<<<",
"<<<<<<<<<<<<<<<<<<<<<<<<<<<<<<<<<<<<<<<<<<<<<<<<<<",
"<<<<<<<<<<<<<<<<<<<<<<oooooooooooooooooooooo<<<<<<",
"<<<<<<<<<<<<<<<<<<<<<<oooooooooooooooooooooo<<<<<<",
"<<<<<<<<<<<<<<........oooooooooooooooooooX..<<<<<<",
"<<<<<<<<<<<<<<ooooooooooooooooooooooooooo.<<<<<<<<",
"<<<<<<<<<<<<<<ooooooooooooooooooooooooooo.<<<<<<<<",
"<<<<<<<<<<< ..ooooooooooooooooooooooooX.. <<<<<<<<",
"<<<<<<<<<<<.oooooooooooooooooooooooooo.<<<<<<<<<<<",
"<<<<<<<<<<<.oooooooooooooooooooooooooo.<<<<<<<<<<<",
"<<<<<<<<.ooooooo-,,,,,,,,oooooooooooooooo.<<<<<<<<",
"<<<<<<<<.ooooooo-,*,,,,,,oooooooooooooooo.<<<<<<<<",
"<<<<<<<<.ooooo--:,*,,,,**---ooooooooooooo.<<<<<<<<",
"<<<<<<<<.ooooo,&,,,,,,,,,,,,oooooooooooooooo<<<<<<",
"<<<<<<<<.ooooo*,,,,,,,,,,,,,oooooooooooooooo<<<<<<",
"<<<<< ..Xooooo,*,,*>;$;;;,,,oooooooooooooooo<<<<<<",
"<<<<<.oooooooo,*,**;#####,*,oooooooooooooooo<<<<<<",
"<<<<<.oooooooo,,,*,;#####,,,oooooooooooooooo<<<<<<",
"<<<<<.oooooooo--:,,;#####---oooooooooo.<<<<<<<<<<<",
"<<<<<.oooooooooo-*,;#####ooooooooooooo.<<<<<<<<<<<",
"<<<<<.oooooooooo-,*;#####ooooooooooooo.<<<<<<<<<<<",
"<<<<<.oooooooooooooooooooooooooooooooo.<<<<<<<<<<<",
"<<<<<.oooooooooooooooooooooooooooooooo.<<<<<<<<<<<",
"<<<<<.oooooooooooooooooooooooooooooooo.<<<<<<<<<<<",
"<<<<<.oooooooooooooooooooooooooooooooooooooo<<<<<<",
"<<<<<.oooooooooooooooooooooooooooooooooooooo<<<<<<",
"<<<<<.oooooooooooO-------ooooooooooooooooooo<<<<<<",
"<<<<<<<<.oooooooo*,,,,,,*ooooooooooooooooooo<<<<<<",
"<<<<<<<<.oooooooo,,,,,,*,ooooooooooooooooooo<<<<<<",
"<<<<<<<<.ooooo---,,,,,,,*--XoooooooooooooX..<<<<<<",
"<<<<<<<<.ooooo,&,*,,**,,,,,=ooooooooooooo.<<<<<<<<",
"<<<<<<<<.ooooo,,,,*,,,,,,*,=ooooooooooooo.<<<<<<<<",
"<<<<<<<<<<<.oo,,,,*$#####*,=oooooooooo.<<<<<<<<<<<",
"<<<<<<<<<<<.oo,,***;#####,,=oooooooooo.<<<<<<<<<<<",
"<<<<<<<<<<<.oo---,,;#####--@ooooooooooX.. <<<<<<<<",
"<<<<<<<<<<<<<<ooo,,;#####oooooooooooooooo.<<<<<<<<",
"<<<<<<<<<<<<<<ooo*,;#####oooooooooooooooo.<<<<<<<<",
"<<<<<<<<<<<<<<...,,>;;%++ooooooooooooooooX..<<<<<<",
"<<<<<<<<<<<<<<<<<<<<<<.ooooooooooooooooooooo<<<<<<",
"<<<<<<<<<<<<<<<<<<<<<<.ooooooooooooooooooooo<<<<<<",
"<<<<<<<<<<<<<<<<<<<<<<<<<<<<<<<<<<<<<<<<<<<<<<<<<<",
"<<<<<<<<<<<<<<<<<<<<<<<<<<<<<<<<<<<<<<<<<<<<<<<<<<",
"<<<<<<<<<<<<<<<<<<<<<<<<<<<<<<<<<<<<<<<<<<<<<<<<<<",
"<<<<<<<<<<<<<<<<<<<<<<<<<<<<<<<<<<<<<<<<<<<<<<<<<<",
"<<<<<<<<<<<<<<<<<<<<<<<<<<<<<<<<<<<<<<<<<<<<<<<<<<",
"<<<<<<<<<<<<<<<<<<<<<<<<<<<<<<<<<<<<<<<<<<<<<<<<<<"
};