/* XPM */
static char *result[] = {
/* columns rows colors chars-per-pixel */
"50 50 19 1 ",
"  c #3D110E",
". c #7A221B",
"X c #B73228",
"o c #F44336",
"O c #BA615B",
"+ c #9A4A76",
"@ c #F77268",
"# c #3F51B5",
"$ c #5F689A",
"% c #9C79A8",
"& c #808080",
"* c gray75",
"= c #FAA19A",
"- c #FAA19B",
"; c #9FA8DA",
": c #FCD0CD",
"> c #CFD4ED",
", c white",
"< c None",
/* pixels */
"<<<<<<<<<<<<<<<<<<<<<<<<<<<<<<<<<<<<<<<<<<<<<<<<<<",
"<<<<<<<<<<<<<<<<<<<<<<<<<<<<<<<<<<<<<<<<<<<<<<<<<<",
"<<<<<<<<<<<<<<<<<<<<<<<<<<<<<<<<<<<<<<<<<<<<<<<<<<",
"<<<<<<<<<<<<<<<<<<<<<<<<<<<<<<<<<<<<<<<<<<<<<<<<<<",
"<<<<<<<<<<<<<<<<<<<<<<<<<<<<<<<<<<<<<<<<<<<<<<<<<<",
"<<<<<<<<<<<<<<<<<<< ...........<<<<<<<<<<<<<<<<<<<",
"<<<<<<<<<<<<<<<<<<<.ooooooooooo<<<<<<<<<<<<<<<<<<<",
"<<<<<<<<<<<<<<<<<<<.ooooooooooo<<<<<<<<<<<<<<<<<<<",
"<<<<<<<<<<<<<<.....Xooooooooooo.....<<<<<<<<<<<<<<",
"<<<<<<<<<<<<<<oooooooooooooooooooooo<<<<<<<<<<<<<<",
"<<<<<<<<<<<<<<oooooooooooooooooooooo<<<<<<<<<<<<<<",
"<<<<<<<<<<< ..oooooooooooooooooooooo...<<<<<<<<<<<",
"<<<<<<<<<<<.ooooooooooooooooooooooooooo<<<<<<<<<<<",
"<<<<<<<<<<<.ooooooooooooooooooooooooooo<<<<<<<<<<<",
"<<<<<<<<.ooooooo-,*,,,-oooooooooo-,,,,-oo.<<<<<<<<",
"<<<<<<<<.ooooooo-&,**,-oooooooooo-&,,,-oo.<<<<<<<<",
"<<<<<<<<.ooooo--:,,,,,:--oooooooo-,,,*-oo.<<<<<<<<",
"<<<<<<<<.ooooo,,,,,,**,*,oooooO*,,*,,*,,*,<<<<<<<<",
"<<<<<<<<.ooooo,**,,**,,,*ooooo-,,,,***,,,,<<<<<<<<",
"<<<<<<<<.ooooo,,,,,>;;;;;ooooo-,,,,,$;;;;><<<<<<<<",
"<<<<<<<<.ooooo,,,,,;#####ooooo-,,,*,#####;<<<<<<<<",
"<<<<<<<<.ooooo,,,,,$#####ooooo-,,,*,#####;<<<<<<<<",
"<<<<<<oooooooo,,,,,;#####ooooo-,,,,,#####%..<<<<<<",
"<<<<<<oooooooo,,*,,;#####ooooo-,*,,,#####+oo<<<<<<",
"<<<<<<oooooooo,,*,,;#####ooooo-*,*,,#####+oo<<<<<<",
"<<<<<<oooooooooo-,,,,,-oooooooooo-,**,-ooooo<<<<<<",
"<<<<<<oooooooooo-,,,*,-oooooooooo-,,,,-ooooo<<<<<<",
"<<<<<<oooooooooo-,,,,,-ooooooooooX====@ooooo<<<<<<",
"<<<<<<oooooooooooooooooooooooooooooooooooooo<<<<<<",
"<<<<<<oooooooooooooooooooooooooooooooooooooo<<<<<<",
"<<<<<<oooooooooooooooooooooooooooooooooooooo<<<<<<",
"<<<<<<oooooooooooooooooooooooooooooooooooooo<<<<<<",
"<<<<<<oooooooooooooooooooooooooooooooooooooo<<<<<<",
"<<<<<<oooooooooooooooooooooooooooooooooooooo<<<<<<",
"<<<<<<oooooooooooooooooooooooooooooooooooooo<<<<<<",
"<<<<<<oooooooooooooooooooooooooooooooooooooo<<<<<<",
"<<<<<<oooooooooooooooooooooooooooooooooooooo<<<<<<",
"<<<<<<oooooooooooooooooooooooooooooooooooooo<<<<<<",
"<<<<<<oooooX..oooooooo......oooooooo..Xooooo<<<<<<",
"<<<<<<ooooo.<<oooooooo<<<<<<oooooooo<<.ooooo<<<<<<",
"<<<<<<ooooo.<<oooooooo<<<<<<oooooooo<<.ooooo<<<<<<",
"<<<<<<ooX.. <<...ooooo<<<<<<oooooX..<< ..Xoo<<<<<<",
"<<<<<<oo.<<<<<<<<ooooo<<<<<<ooooo.<<<<<<<.oo<<<<<<",
"<<<<<<oo.<<<<<<<<ooooo<<<<<<ooooo.<<<<<<<.oo<<<<<<",
"<<<<<<<<<<<<<<<<<<<<<<<<<<<<<<<<<<<<<<<<<<<<<<<<<<",
"<<<<<<<<<<<<<<<<<<<<<<<<<<<<<<<<<<<<<<<<<<<<<<<<<<",
"<<<<<<<<<<<<<<<<<<<<<<<<<<<<<<<<<<<<<<<<<<<<<<<<<<",
"<<<<<<<<<<<<<<<<<<<<<<<<<<<<<<<<<<<<<<<<<<<<<<<<<<",
"<<<<<<<<<<<<<<<<<<<<<<<<<<<<<<<<<<<<<<<<<<<<<<<<<<",
"<<<<<<<<<<<<<<<<<<<<<<<<<<<<<<<<<<<<<<<<<<<<<<<<<<"
};