/* XPM */
static char *result[] = {
/* columns rows colors chars-per-pixel */
"50 50 14 1 ",
"  c #FF4638",
". c #FF766B",
"X c #FF857D",
"o c #5972FF",
"O c #FF7BC3",
"+ c #FFA49D",
"@ c #FFA49E",
"# c #9DACFF",
"$ c #EDB8FF",
"% c #BAC5FF",
"& c #FFD2CF",
"* c #DFE4FF",
"= c white",
"- c None",
/* pixels */
"--------------------------------------------------",
"--------------------------------------------------",
"--------------------------------------------------",
"--------------------------------------------------",
"--------------------------------------------------",
"--------------------------------------------------",
"-------------------           --------------------",
"-------------------           --------------------",
"-------------------            -------------------",
"--------------                      --------------",
"--------------                      --------------",
"--------------                      --------------",
"-----------                           ------------",
"-----------                           ------------",
"---------  @====@          @=====@       ---------",
"---------  @====@          @=====@       ---------",
"---------  @====@        @@&=====&@@     ---------",
"--------===========X     ===========     ---------",
"--------===========@     ===========     ---------",
"--------*%%%%#=====@     %%%%%*=====     ---------",
"--------%ooooo=====@     ooooo%=====     ---------",
"--------%ooooo=====@     ooooo#=====     ---------",
"--------$ooooo=====@     ooooo%=====        ------",
"------  Oooooo=====@     ooooo%=====        ------",
"------  Oooooo=====@     ooooo%=====        ------",
"------     @====@          @=====@          ------",
"------     @====@          @=====@          ------",
"------     .++++           @=====@          ------",
"------                                      ------",
"------                                      ------",
"------                                      ------",
"------                                      ------",
"------                                      ------",
"------                                      ------",
"------                                      ------",
"------                                      ------",
"------                                      ------",
"------                                      ------",
"------      --        ------        --      ------",
"------     ---        ------        ---     ------",
"------     ---        ------        ---     ------",
"------   -------      ------     --------   ------",
"------  ---------     ------     ---------  ------",
"------  ---------     ------     ---------  ------",
"--------------------------------------------------",
"--------------------------------------------------",
"--------------------------------------------------",
"--------------------------------------------------",
"--------------------------------------------------",
"--------------------------------------------------"
};