/* XPM */
static char *_b40298d1e9a473ea13db1967fd02317OdlpjmoOUAhywP5F[] = {
/* columns rows colors chars-per-pixel */
"50 50 226 2 ",
"   c None",
".  c #010203",
"X  c #03050A",
"o  c #05080E",
"O  c #070A12",
"+  c #090D15",
"@  c #090E19",
"#  c #0C111D",
"$  c #0D1423",
"%  c #0F162B",
"&  c #121827",
"*  c #131B2B",
"=  c #111727",
"-  c #151E33",
";  c #131A3D",
":  c #1A2134",
">  c #1B263C",
",  c #1B253A",
"<  c #222A3E",
"1  c #1E2943",
"2  c #1D2847",
"3  c #212B43",
"4  c #212D4B",
"5  c #25324E",
"6  c #29344B",
"7  c #222C56",
"8  c #263352",
"9  c #293555",
"0  c #2D3953",
"q  c #2A355B",
"w  c #2D3B5B",
"e  c #27345D",
"r  c #313E5C",
"t  c #303C56",
"y  c #2E3B63",
"u  c #2D3A6B",
"i  c #313E62",
"p  c #313F6B",
"a  c #293777",
"s  c #2A356E",
"d  c #32405E",
"f  c #334364",
"g  c #34446B",
"h  c #3B4B6B",
"j  c #394867",
"k  c #344473",
"l  c #3B4C74",
"z  c #3B4D7C",
"x  c #374678",
"c  c #3E517B",
"v  c #3F5075",
"b  c #2F406C",
"n  c #404E77",
"m  c #42547B",
"M  c #45577B",
"N  c #40506F",
"B  c #112D94",
"V  c #1C3B99",
"C  c #143397",
"Z  c #0D2A91",
"A  c #283986",
"S  c #243E9B",
"D  c #143DA2",
"F  c #1C419C",
"G  c #344582",
"H  c #394B86",
"J  c #3D5187",
"K  c #3C5294",
"L  c #3C559D",
"P  c #2D4898",
"I  c #1C42A1",
"U  c #1648A8",
"Y  c #1956B0",
"T  c #2353AD",
"R  c #2856A8",
"E  c #385AA7",
"W  c #275CB3",
"Q  c #224BA6",
"!  c #2766BA",
"~  c #2F75BE",
"^  c #1A65B9",
"/  c #425583",
"(  c #465A82",
")  c #495C85",
"_  c #41548B",
"`  c #475C8B",
"'  c #445B94",
"]  c #465998",
"[  c #4B618B",
"{  c #4D6394",
"}  c #4D639A",
"|  c #536B9D",
" . c #546894",
".. c #465DA4",
"X. c #4B63A3",
"o. c #4966AA",
"O. c #536CA5",
"+. c #546CAA",
"@. c #5A73AA",
"#. c #5675AB",
"$. c #516EB5",
"%. c #4C77BC",
"&. c #5975B4",
"*. c #5679B8",
"=. c #627DAC",
"-. c #627EB7",
";. c #317BC3",
":. c #2770C2",
">. c #597FC1",
",. c #4A82BC",
"<. c #6483BC",
"1. c #6886B8",
"2. c #758EB8",
"3. c #338AC9",
"4. c #3888C6",
"5. c #3A94CD",
"6. c #2D84C7",
"7. c #498BCA",
"8. c #5988C6",
"9. c #4493CD",
"0. c #4C94CB",
"q. c #4C9BCD",
"w. c #4498CB",
"e. c #549BCE",
"r. c #5A98CD",
"t. c #439CD1",
"y. c #4B99D2",
"u. c #539CD3",
"i. c #5C9CD2",
"p. c #5997D4",
"a. c #6284C1",
"s. c #648BC4",
"d. c #6C8CC2",
"f. c #678CC9",
"g. c #6E92C5",
"h. c #6493CB",
"j. c #6B9BCD",
"k. c #6997CB",
"l. c #7295CA",
"z. c #749BCC",
"x. c #7799C9",
"c. c #659CD2",
"v. c #6899D3",
"b. c #739CD3",
"n. c #4EA2CE",
"m. c #56A5D4",
"M. c #5DA4D4",
"N. c #5CAAD5",
"B. c #5EACDA",
"V. c #58A7DA",
"C. c #5DB2DB",
"Z. c #5EB3D6",
"A. c #52A2D1",
"S. c #75A2CF",
"D. c #64A4D3",
"F. c #6AA3D4",
"G. c #64AAD6",
"H. c #6CACD5",
"J. c #64ABD9",
"K. c #6DACDB",
"L. c #6AA5D9",
"P. c #72ACD6",
"I. c #7BACD5",
"U. c #74ABDA",
"Y. c #7CADDA",
"T. c #76A2D4",
"R. c #63B3DC",
"E. c #6CB3DB",
"W. c #6CBBDE",
"Q. c #63B7D9",
"!. c #73B4DC",
"~. c #7BB4DA",
"^. c #74BBDD",
"/. c #7BBBDE",
"(. c #7BB1D7",
"). c #62B5CF",
"_. c #7AAEE1",
"`. c #6DBDE3",
"'. c #63B6E2",
"]. c #73BCE0",
"[. c #7CBCE1",
"{. c #7EB5E1",
"}. c #79C2DF",
"|. c #75C5E2",
" X c #7BC3E3",
".X c #7BCAE6",
"XX c #74CBE6",
"oX c #74CEE4",
"OX c #83ABD6",
"+X c #85AAD7",
"@X c #83B4DC",
"#X c #82BCDC",
"$X c #8CBDDE",
"%X c #89B1D8",
"&X c #93BCDD",
"*X c #95B7DA",
"=X c #88A0C8",
"-X c #86B9E2",
";X c #83C1DE",
":X c #8CC5DF",
">X c #93C4DE",
",X c #96C7DD",
"<X c #A0C2DD",
"1X c #84C5E3",
"2X c #8BC4E2",
"3X c #84CBE5",
"4X c #8BCAE4",
"5X c #8FCAE8",
"6X c #92C3E2",
"7X c #94CCE3",
"8X c #9BCDE4",
"9X c #9AC6E4",
"0X c #8BD3E6",
"qX c #8CD2E9",
"wX c #87D6E8",
"eX c #93D2E5",
"rX c #9CD4E5",
"tX c #9BDBE6",
"yX c #97D8E8",
"uX c #A3CEE4",
"iX c #A2D5E5",
"pX c #A4DAE6",
"aX c #A8DAE7",
"sX c #B4DBE7",
"dX c #B1E0E8",
"fX c #C7DBE4",
/* pixels */
"                                                                                                    ",
"                                                                                                    ",
"                                                                                                    ",
"                                    . . . X X O # # O X . .                                         ",
"                              . . X . O - 1 > g w 5 3 > 1 : X + # .   .                             ",
"                              o > 1 * 9 c [ c ( m M f 0 w 6 3 q 4 * O X                             ",
"                          . $ > 1 y z { =.` ` l / { m ( h w 9 w g 8 4 - *                           ",
"                    . . X - 2 8 K K z [ { ` ` @.&.*.g.` c g a q ' K u 1 2 $ .   .                   ",
"                  . . X , 5 3 f ` +.1.} { O.] <.l.g.I.d.1.2._ +.z a G J H e @ . X .                 ",
"                . . o * f r t n M | | x.%Xd.@Xb.z.%X9X/.b.@X%X1.) x G _ O.q 8 & + .                 ",
"                O : 3 z 0 0 l ( =.x.OXg.z.S.@XU. X1XS.v.s.h.z.=XOX-.' G _ k g 8 % @                 ",
"            .   @ q l v r n @.2.OX9X*XS.x.5X/.z.;X#XF.k.!.j.;X9X9Xz.l.o.H g l c > *   .             ",
"            o @ - 9 y l /  .l.+Xl.+XOXI.P.U.1XiX$X&X*X,X1X/.!.H.[.7X%Xf...x H r j 8 +               ",
"            . > 8 w ` J ] <.@XT.OX@X6X~.7XqXaXpXeXaX9X&XaX8X^.D.8.h.U._.g.] p z l g * X             ",
"            # > w g J ..&.g.~.h.$X>X7XiXtXpXrXsX8XsX1XuXfXiXeXE.E.h.h.{.2Xa.' +.O.( < $ .           ",
"            & < 9 p _ g.6X9X~.h.8XiX7X6X/.~.J.G.p.r.U.U.Y.-XrXwXqXH.J.[.1X@X*.$.X.| c > o .         ",
"            : 9 G o.l.@X8Xl.c.~.4XeXrX7XU.J.!./.J.V.V.K.K.T.@XuXaXrXJ.K.E.1XY.-.x z f : o           ",
"          @ ( x ] f.T._.{.c.!.0XtXeX0X2X!.@XN.C.M.i.M.N.].p.8.Y.8XsX3X3X^.`.8Xa.} ( j q : .         ",
"        . 3 [ i O.$.U.6XyXE.oX0X7XrX2X!.D.D.P.G.~.I.e.e.c.R.R.8.2XiXaXtXE..XpX-X<./ m j > .         ",
"        , f ) l ..&.Y.4XtXwXyXpX2XK.H.J.m.D.i.9.7.7.j.e.e.M.!.V.M.rXsXwX|.`.qX-Xl._ | r < #         ",
"    . * > f  .@.] l.Y.3XK..XdXiX~.P.B.H.D.q.4.:.;.! ! %.3.0.i.R.^.;XsX X`.G.R.-Xb.-./ v 0 >         ",
"      $ > 0 h { 8.g.T.h.}.tXsX>X~.J.W.m.0.;.:.W W Y W T ! w.9.q.^./.:X,X3XoX1Xv.OXl.X.h g 1 .       ",
"      X - f d g l.z.h.~. XrXpX;XE./.m.4.6.^ U V V F I F E 4.q.M.|.}.:X<X.XoXE.U.f.d.x l r > . .     ",
"    . # 5 0 j m x.j.8. X3XqXtX/.C.E.0.9.6.U B I R T F A R ;.n.H.Q.R.(.&XwXwX].2Xl.@.( / f q X       ",
"    . O 3 h h } d.L.U.c. XqXtX!.C.V.9.t.! B I W 7.w.! V F 4.).m.C.^.H.>XwX0X].1XOXg.<.` m f . .     ",
"      + * h  .| a.U.wXD.[.tXyX;XB.u.t.5.R C Q ~ e.).~ U Q 4.N.Q.E.W.(.>XwXwX3XeXU.x.&./ r : O       ",
"    . O * 0 N { a.<.K.J.eXdX3X!.R.y.9.5.T S D T ! ~ Y D T 4.q.Z.P.E.I.#XrX0XeX$X%X&.] l g : +       ",
"    .   # 6 j l &.-.h.E. XpX3XE.B.B.3.t.! V Z C D I F U Y ~ n.M.N.N.p.K.pXqX5XI.z.l.] p 0 > X       ",
"        & 0 d O.+.I.!.!.].tXtX/.c.^.0.5.3.U Z C Z U U I R ,.D.M.N.J.D.6XeXG.F. X&X&.K q 0 > O       ",
"    .   o 9 l { O.OX[.4XJ.|.3X/.>X^.D.4.n.4.T Z B V F R ,.q.N.u.C.M.(.@XeX;XE.D.OX*.a u 3 * #       ",
"    . . O w 0 g O.a.-X!.p.C.}.7X:X~.R.M.9.5.3.T I T w.n.Z.Z.u.N.^.G.@X%XK.!.~.j.>.E a p f +         ",
"      . . 3 < m x S.b.K.].'.R.$X:XF.J.^.m.5.5.6.;.4.3.t.m.m.9.R.|. X$XK.!.L.-XU.$.L a g q $         ",
"        # O 3 l c X.*.F. XR.0.7X~.4X#X.XC.V.B.t.9.y.y.y.7.p.V.`.7X;XF.8.c.K.2X6X*.a k g 2 O         ",
"        . * : g z J ] *.{.c.i.W.2XrX^.E.E.J.0.J.u.R.B.u.p.V.].7X,XE.H.r.%.L.@X*.$.k 7 1 $ .         ",
"        . * : g i p k @.d.f.].].3X4X2X/.#X!.v.b.@Xi./.~.&X;X:X8X4X^./.J.8.f.s.K A s ; + X           ",
"        . + * 1 x c H n =.I.r.u.J. X|. X1X4X-X6X8X8XiX7XrXsXsXaX^.N.7.H.<.g.o.&.b 7 % O X           ",
"        .   . $ 4 f O.G { g.b. XB.W.W.}.wX1XeXrXqXqXeX4X3XrX3X XXX X^.*.+.H p i 4 2 # .             ",
"              # O f g G / @.x.z.D.D.e.C.n.Q.`. X|.0X.X.XwX^.W.3X X3XP.8.E y 9 g 8 4 .               ",
"              . $ $ , e g k  .1.r.F.^.c.E.|.3XG.J.|.^.Q.E.D. X XY.@X8...z f i l 5 - .               ",
"                X X 5 3 p k i / #.&.8.P.!.7X1XF.F.^./.D.h.S.8.6Xg.d.X.X.G J 8 2 - O                 ",
"                  . & , q 9 i q q / } h.F.2X@X!.s.z.S.s.<.x.&.z...K } ] k 4 2 $ X                   ",
"                    . + % 4 e 7 s y ` #.o.s.1.z.*.@.O.g.o.L K X.A a ' k 8 $ . X                     ",
"                      . @ * 4 y s J j h z J _ | } k z c J k z u k 9 9 1 $ O .                       ",
"                        . X - 1 1 3 6 f M h l ) =.m r t j 6 r d 5 * # # o X                         ",
"                            . . X o * : 6 w l g w g m w r w 3 = * .       .                         ",
"                              . . . O $ & > 4 4 4 : , q > 5 * .   .                                 ",
"                                    . . . @ % % $ # # + . O o                                       ",
"                                                                                                    ",
"                                                                                                    ",
"                                                                                                    "
};