/* XPM */
static char *_79f78c5ebec47bfa2e9944d6ae73cd0kyaYoB766J7iDxml[] = {
/* columns rows colors chars-per-pixel */
"50 50 2 1 ",
"  c None",
". c #FFEB3B",
/* pixels */
"                                                  ",
"                                                  ",
"                                                  ",
"                                                  ",
"                                                  ",
"                                                  ",
"                      .........                   ",
"                      .........                   ",
"                      .........                   ",
"                .....................             ",
"                .....................             ",
"                .....................             ",
"             ...........................          ",
"             ...........................          ",
"             ...........................          ",
"          ...............   ...............       ",
"          ...............   ...............       ",
"          ...............   ...............       ",
"          ...........................             ",
"          ...........................             ",
"          ...........................             ",
"       .....................                      ",
"       .....................                      ",
"       .....................                      ",
"       ...............                            ",
"       ...............                            ",
"       ...............                            ",
"       .....................                      ",
"       .....................                      ",
"       .....................                      ",
"          ...........................             ",
"          ...........................             ",
"          ...........................             ",
"          .................................       ",
"          .................................       ",
"          .................................       ",
"             ...........................          ",
"             ...........................          ",
"             ...........................          ",
"                .....................             ",
"                .....................             ",
"                .....................             ",
"                      .........                   ",
"                      .........                   ",
"                      .........                   ",
"                                                  ",
"                                                  ",
"                                                  ",
"                                                  ",
"                                                  "
};