/* XPM */
static char *result[] = {
/* columns rows colors chars-per-pixel */
"50 50 2 1 ",
"  c #FFEB3B",
". c None",
/* pixels */
"..................................................",
"..................................................",
"..................................................",
"..................................................",
"..................................................",
"..................................................",
"..................................................",
"...............   ...............   ..............",
"...............   ...............   ..............",
"...............   ...............   ..............",
"............      ...............      ...........",
"............      ...............      ...........",
"............      ...............      ...........",
".........            .........            ........",
".........            .........            ........",
".........            .........            ........",
".........            .........            ........",
".........            .........            ........",
".........            .........            ........",
"......               .........               .....",
"......               .........               .....",
"......               .........               .....",
"......         ...      ...                  .....",
"......         ...      ...                  .....",
"......         ...      ...                  .....",
"......                  ...                  .....",
"......                  ...                  .....",
"......                  ...                  .....",
".........                                 ........",
".........                                 ........",
".........                                 ........",
".........                                 ........",
".........                                 ........",
".........                                 ........",
"............                           ...........",
"............                           ...........",
"............                           ...........",
"...............                     ..............",
"...............                     ..............",
"...............                     ..............",
".....................         ....................",
".....................         ....................",
".....................         ....................",
"..................................................",
"..................................................",
"..................................................",
"..................................................",
"..................................................",
"..................................................",
".................................................."
};