/* XPM */
static char *_ec597463ff747ca8eb9e28b6e11c4f91VjX67HAzaUKTDPB[] = {
/* columns rows colors chars-per-pixel */
"50 50 191 2 ",
"   c #5F0FBE",
".  c #6501B7",
"X  c #6707BA",
"o  c #6904BA",
"O  c #630CBE",
"+  c #6110BE",
"@  c #6400C3",
"#  c #6C02C2",
"$  c #650BC3",
"%  c #6C09C5",
"&  c #6B01CB",
"*  c #6D0DCB",
"=  c #7207C5",
"-  c #750ACA",
";  c #6316C3",
":  c #6A13C4",
">  c #641CC7",
",  c #691BC4",
"<  c #6E13CB",
"1  c #641DCA",
"2  c #6D1FCB",
"3  c #7213CC",
"4  c #731DCC",
"5  c #710ED0",
"6  c #7B0DD1",
"7  c #6F13D2",
"8  c #7212D5",
"9  c #771ED2",
"0  c #7A1DD6",
"q  c #7F10D9",
"w  c #791ADA",
"e  c #5E35C4",
"r  c #5B38C5",
"t  c #5F36C8",
"y  c #5A3CCA",
"u  c #6523C7",
"i  c #6B21C6",
"p  c #662CC6",
"a  c #6523C9",
"s  c #6C22CC",
"d  c #672BCD",
"f  c #6A2ECD",
"g  c #7324CB",
"h  c #6237C9",
"j  c #6B32CD",
"k  c #6339CC",
"l  c #6B3ACF",
"z  c #7032CF",
"x  c #652DD1",
"c  c #6A2CD2",
"v  c #6E2AD9",
"b  c #7425D3",
"n  c #7823D4",
"m  c #7529D2",
"M  c #7A2CD5",
"N  c #7926DA",
"B  c #732ED9",
"V  c #7B2ADC",
"C  c #6634D1",
"Z  c #6D32D1",
"A  c #6739D3",
"S  c #6C3BD4",
"D  c #6D36D9",
"F  c #6E3BDA",
"G  c #7232D4",
"H  c #7932D6",
"J  c #713AD4",
"K  c #7B3AD6",
"L  c #7335DB",
"P  c #7A34DB",
"I  c #733BDB",
"U  c #7C3BDD",
"Y  c #7435E0",
"T  c #7C35E4",
"R  c #743DE1",
"E  c #7D3BE2",
"W  c #7A39E8",
"Q  c #5C42CA",
"!  c #5F48CD",
"~  c #5E50CF",
"^  c #5D47D1",
"/  c #5F52D3",
"(  c #585FD5",
")  c #6343CD",
"_  c #624CCE",
"`  c #6545D4",
"'  c #6C44D3",
"]  c #624DD3",
"[  c #6B4CD3",
"{  c #6742D9",
"}  c #6A43DA",
"|  c #6B4EDC",
" . c #7043D4",
".. c #704CD6",
"X. c #7545DC",
"o. c #7B42DC",
"O. c #754BDE",
"+. c #794BDF",
"@. c #6353D5",
"#. c #6953D7",
"$. c #665AD6",
"%. c #6655D9",
"&. c #6A53DE",
"*. c #6A59DD",
"=. c #7153DC",
"-. c #7459DE",
";. c #5865D5",
":. c #5668D4",
">. c #5E6ED7",
",. c #5C65DB",
"<. c #5F6EDA",
"1. c #6565DD",
"2. c #6A63DD",
"3. c #6968DF",
"4. c #7168DF",
"5. c #6B71DE",
"6. c #7544E1",
"7. c #7B45E2",
"8. c #764BE5",
"9. c #7A4AE5",
"0. c #7C46E9",
"q. c #7C4FEA",
"w. c #6B57E2",
"e. c #6D5BE2",
"r. c #7552E3",
"t. c #7B56E5",
"y. c #745CE3",
"u. c #795BE7",
"i. c #7E52EE",
"p. c #745EE8",
"a. c #7A5EEA",
"s. c #7E5FF0",
"d. c #6266E0",
"f. c #6F64E7",
"g. c #6668E0",
"h. c #6C6CE3",
"j. c #6F6EE9",
"k. c #7263E4",
"l. c #746DE4",
"z. c #7761EE",
"x. c #7B62EC",
"c. c #726CEC",
"v. c #7C6BEE",
"b. c #6271E0",
"n. c #6C74E6",
"m. c #6E7AE6",
"M. c #6E76E9",
"N. c #6D7DED",
"B. c #7075E3",
"V. c #7175E4",
"C. c #7176E8",
"Z. c #7473EC",
"A. c #7776EF",
"S. c #7A72EA",
"D. c #767AED",
"F. c #7878EF",
"G. c #7B63F1",
"H. c #7E60F0",
"J. c #7E6CF1",
"K. c #7675F1",
"L. c #7775F2",
"P. c #7977F4",
"I. c #7578F2",
"U. c #737FF1",
"Y. c #7979F1",
"T. c #7B7FF1",
"R. c #7C7FF2",
"E. c #8010DA",
"W. c #832ADB",
"Q. c #833CE6",
"!. c #843FEA",
"~. c #8447E1",
"^. c #8447E2",
"/. c #8245E4",
"(. c #8842E4",
"). c #8349E5",
"_. c #844DEA",
"`. c #8453ED",
"'. c #855CED",
"]. c #875EF4",
"[. c #8164EB",
"{. c #8263F3",
"}. c #8465F4",
"|. c #876EF7",
" X c #837AF4",
".X c #887EFB",
"XX c #7382EF",
"oX c #7483F1",
"OX c #7782F7",
"+X c #7787F8",
"@X c #7888FA",
/* pixels */
"N.N.N.N.U.OXOXOX<.:.:.:.;.,.,.,.,.d.d.d.1.K.K.K.A.F.Y.Y.Y.$.@.@.@.@.w.w.w.k.v.v.v.k.^ ^ ^ ] }.}.}.{.",
"N.N.N.N.U.OXOXOX<.:.:.:.;.,.,.,.,.d.d.d.1.K.K.K.K.F.Y.Y.Y.$.@.@.@.@.w.w.w.k.v.v.v.y.^ ^ ^ ] }.}.}.}.",
"N.N.N.N.U.OXOXOX<.:.:.:.;.,.,.,.,.d.d.d.1.K.K.K.A.A.Y.Y.Y.$.@./ @.@.w.*.w.k.v.v.v.y.^ ^ ^ ] }.}.}.}.",
"N.N.N.N.U.OXOXOX<.:.:.:.;.,.,.,.,.d.d.d.1.K.K.K.K.A.Y.Y.Y.$./ / / @.w.w.w.k.v.v.v.y.^ ^ ^ ] }.}.}.{.",
"m.m.m.m.>.>.>.>.>.<.<.<.;.( ( ( 1. X X XF.h.h.h.h.c.c.c.c.@.] ] ] ) ) ) ) [ a.a.a.y.y.y.y.=.{ { { { ",
"m.m.m.m.<.<.<.<.<.5.b.b.,.,.,.,.g..X.X.X Xc.c.c.j.c.c.c.c.@.@.@.@.) ) ) ) | H.H.H.a.u.u.u.r.} } } { ",
"m.m.m.m.<.<.<.<.<.5.5.5.,.,.,.,.g..X.X.X Xj.c.j.j.c.c.c.c.@.@.@.@.) ) ) ) | H.s.H.a.u.u.u.r.} } } { ",
"m.m.m.m.<.<.<.<.<.5.5.5.,.,.,.,.g..X.X.X Xj.c.j.j.c.c.c.c.@.@.@.@.) ) ) ) | H.s.H.a.u.u.u.r.} } } { ",
"XXoXoXoX5.5.5.5.n.M.M.M.n.C.C.C.3.$.$.$.@.$.$.$.@.c.v.v.v._ _ _ _ =.t.t.t.t.y.y.y.y.i.i.i.8.6.6.6.6.",
"+X@X@X@XB.V.V.V.C.I.I.I.D.R.R.R.l.@./ @.~ ] ] ] ] v.J.J.J.@._ _ ] t.].].].a.a.a.a.u.i.i.i.q.0.0.0.7.",
"+X@X@X@XB.V.B.V.C.I.I.I.D.R.T.R.l.@./ @.~ ] ] ] ] v.J.J.J.@._ _ _ t.].].].a.a.a.a.u.i.i.i.q.0.0.0.7.",
"+X@X@X@XB.V.V.V.C.I.I.I.D.R.R.R.l.@./ @.~ ] ] ] ] v.J.J.J.@._ _ _ t.].].].a.a.a.a.u.i.i.i.q.0.0.0.7.",
"M.M.M.M.n.C.C.C.h.h.h.h.3.h.h.h.2.%.%.%.$.%.%.%.@.y.y.y.y.Q Q Q Q ) ' ' ' ' +.+.+.X.F F F S 7.7.7.o.",
"n.n.n.n.Z.I.K.I.h.3.3.3.1.e.*.*.*.e.e.e.e.w.w.w.w.r.r.r.r.y y y y y k k k A 6.6.6.I x x x C ^.^.^.^.",
"n.n.n.n.Z.I.I.I.h.3.3.3.1.e.e.e.*.e.e.e.e.w.w.w.w.r.r.r.r.y y y y y k k k A 6.6.6.F x x x C ^.^.^.^.",
"n.n.n.n.Z.I.I.I.h.3.3.3.1.e.e.e.*.e.e.e.e.w.w.w.*.r.r.r.r.y y y y y k k k A 6.6.6.F x x x C ^.^.^.^.",
"h.h.h.h.V.Z.Z.Z.2.2.2.2.2.k.y.e.*.#.#.#.#.y.y.y.y.| | | | ` ` ` ` ) A A A l l S S l S S F S o.o.o.o.",
"h.h.h.h.l.S.S.S.k.f.f.f.k.G.G.G.y.[ [ [ [ G.G.G.x.| | | w.r.t.t.t.+.9.9.9.S p p p j _._._.9.U U U U ",
"h.h.h.h.l.S.S.S.k.f.f.f.k.G.G.G.y.[ [ [ [ G.G.G.x.| | | &.r.t.t.t.+.9.9.9.S p p p l _._._.9.U U U U ",
"h.h.h.h.l.S.S.S.k.f.f.f.k.G.G.x.y.[ [ [ [ G.G.G.x.| &.| &.r.t.t.t.+.9.9.9.S p p p l _._._.).U U U U ",
"h.h.h.h.4.l.l.l.*.*.*.*.y.x.x.x.y.[ [ [ [ a.a.a.a.| | | | ..O.O.O.X.X.X.X.l p f p l ).).).7.P P P P ",
"K.P.P.P.e.e.e.e.] ! ! ! -.|.|.|.x.| | | | {.{.{.{.9.9.9.9.j j j j J o.o.o.I I I I I !.!.!.Q.V V V V ",
"K.P.P.P.e.e.e.e.] ! ! ! -.|.|.|.x.| | | | {.{.{.{.9.9.9.9.j j j j J o.o.o.I I I I I !.!.!.Q.V V V V ",
"K.P.P.P.e.e.e.e.] ! ! ! -.|.|.|.x.| | | | {.{.{.{.9.9.9.9.j j j j J o.o.o.I I I I I !.!.!.Q.V V V V ",
"Z.Z.Z.Z.*.*.*.*._ _ _ _ #.[.[.[.u.| | | | a.'.'.a.X.6.6.6.j j j j J o.o.o.J J J J I E E E U b b b b ",
"*.*.*.*.[ [ [ [ -.[.[.[...k k k ' '.'.'.'.`.`.`.`.j j j j J R R R 7.).).).E T T T B 2 2 2 2 ; ; ; ; ",
"*.*.*.*.[ [ [ [ -.[.[.[...h k h ' '.'.'.'.`.`.`.`.j j j j J R R R 7.).).).E T T T B 2 2 2 2 ; ; ; ; ",
"*.*.*.*.[ [ [ [ -.[.[.[...k k k ' '.'.'.'.`.`.`.`.j j j j J R R R o.).).).E T T T B 2 2 2 2 ; ; ; ; ",
"*.*.*.*.[ [ [ [ -.[.[.[...h k h ' '.'.'.'.`.`.`.`.j j j j J R R R 7.).).).E T T T B 2 4 2 2 ; ; ; ; ",
"&.&.&.&.y.p.p.p.) y y y r e e e k 6.6.6.X.0.0.0.7.d d d d L Y Y Y v v v v G U U K m       + 9 9 9 9 ",
"w.w.w.w.p.z.z.z.` y y y r t h h k 8.8.8.6.0.0.0.0.d x c c L W W W B v v v G U U U m       + 0 0 0 0 ",
"w.w.w.w.p.z.z.z.` y y y r t h t k 8.8.8.6.0.0.0.0.d c c c Y W W W B v v v G U U U m $     + 0 0 0 0 ",
"w.w.w.w.p.z.z.z.` y y y r t h h k 8.8.8.6.0.0.0.0.d c c c Y W W W B v v v G U U U m $   $ + 0 0 0 0 ",
"x.x.x.x.` ) ) ) ` ' ' '  .o.o.o.o.9.9.9.7.J J J J c c c Z U Q.Q.Q.m g b b m M M M g O O O O X X X X ",
"{.{.{.{.k k k k ' +.+.+.+./././.7._._._./.G G G j G G G G Q.!.!.!.M m m m m W.W.W.n $ $ $ O . . . . ",
"{.{.{.{.k k k k ' +.+.+.+./././.7._._._./.G G G j G G G G Q.!.!.!.M m m m m W.W.W.n $ $ $ O . . . . ",
"{.{.{.{.) k k k ' +.+.+.+.0.0.0.7._._._./.G G G j G G G G E !.!.!.M m m m m W.W.W.n $ $ $ O . . . . ",
"t.t.t.t.k k k k l S S S S J J J J J J J J K K K K i s s s M P P P m b b b b 0 0 0 4 * * * % o o o o ",
"8.8.8.8.A A A A C S S S Z J J J l x x x f (.(.(.(.i i i i m V V V N N N N n w w w 8 8 8 8 5 # # # # ",
"8.8.8.8.A A A A C S S S l J J J l x x x f (.(.(.(.i i i i m V V V N N N N n w w w 8 8 8 8 5 # # # # ",
"8.8.8.8.A A A A C S S S Z J J J l x x x f (.(.(.(., i i i m V V V N N N N n w w w 8 8 8 8 5 # # # # ",
"O.O.O.O.S S S S A S S S S I I I z u u u u H H H H , , , , g n n n 4 4 4 4 < < < < < * * * % # # # o ",
"X.X.X.X.S F F F F R R R R !.!.!.H , , , , s s s s : : : : 4 0 0 0 3 - - - % $ $ $ $ % % % % & & & & ",
"X.X.X.X.S F F F F R R R R !.!.!.H , , , , s s s s : : : : 4 0 0 0 3 - - - % $ $ $ $ % % % % & & & & ",
"X.X.X.X.S F F F F R R R R !.!.!.H , , , , s s s s : : : : 4 0 0 0 3 - - - % $ $ $ $ % % % % & & & & ",
"S S S S S S S S S D D D L U U U m , , , , 2 s 2 , : : : : < 3 3 3 % % % % % % % % $ % % % % @ @ @ @ ",
"u a a a f Z Z Z a 1 1 1 > > > > , g g g g 4 4 4 4 7 8 8 7 @ @ @ @ & & & & - E.E.E.6 - - - = @ @ @ @ ",
"u a a a f Z Z Z a 1 1 1 > > > > , g g g g 4 4 4 4 7 8 8 8 @ @ @ @ & & & & - E.E.E.6 - - - = @ @ @ @ ",
"u a a a f Z Z Z a 1 1 1 > > > > , g g g g 4 4 4 4 7 8 8 8 @ @ @ @ & & & & - q q E.6 - - - = @ @ @ @ ",
"u u u u f c f c a 1 1 1 > > > > > g g g g 4 4 4 4 7 7 7 7 @ @ @ @ @ & & & - q q q 6 - - - = @ @ @ @ "
};